# This file uses centimeters as units for non-parametric coordinates.

mtllib electrons.mtl
g default
v 0.682382 3.727524 -3.924852
v 0.682382 3.783259 -3.799669
v 0.682382 3.901931 -3.731154
v 0.682382 4.038210 -3.745478
v 0.682382 4.140042 -3.837168
v 0.682382 4.168533 -3.971205
v 0.682382 4.112798 -4.096389
v 0.682382 3.994126 -4.164903
v 0.682382 3.857847 -4.150579
v 0.682382 3.756012 -4.058887
v 0.580469 3.528603 -3.903945
v 0.580469 3.634618 -3.665832
v 0.580469 3.860344 -3.535509
v 0.580469 4.119563 -3.562753
v 0.580469 4.313261 -3.737160
v 0.580469 4.367454 -3.992111
v 0.580469 4.261438 -4.230224
v 0.580469 4.035711 -4.360547
v 0.580469 3.776492 -4.333302
v 0.580469 3.582795 -4.158896
v 0.421735 3.370739 -3.887353
v 0.421735 3.516656 -3.559619
v 0.421735 3.827342 -3.380244
v 0.421735 4.184126 -3.417744
v 0.421735 4.450728 -3.657793
v 0.421735 4.525318 -4.008704
v 0.421735 4.379400 -4.336438
v 0.421735 4.068715 -4.515811
v 0.421735 3.711930 -4.478312
v 0.421735 3.445327 -4.238264
v 0.221719 3.269384 -3.876700
v 0.221719 3.440919 -3.491425
v 0.221719 3.806153 -3.280558
v 0.221719 4.225578 -3.324641
v 0.221719 4.538989 -3.606838
v 0.221719 4.626673 -4.019357
v 0.221719 4.455138 -4.404632
v 0.221719 4.089904 -4.615499
v 0.221719 3.670478 -4.571416
v 0.221719 3.357068 -4.289219
v -0.000000 3.234460 -3.873030
v -0.000000 3.414822 -3.467927
v -0.000000 3.798851 -3.246207
v -0.000000 4.239862 -3.292560
v -0.000000 4.569401 -3.589278
v -0.000000 4.661597 -4.023027
v -0.000000 4.481235 -4.428129
v -0.000000 4.097205 -4.649849
v -0.000000 3.656195 -4.603497
v -0.000000 3.326656 -4.306778
v -0.221719 3.269384 -3.876700
v -0.221719 3.440919 -3.491425
v -0.221719 3.806153 -3.280558
v -0.221719 4.225578 -3.324641
v -0.221719 4.538989 -3.606838
v -0.221719 4.626673 -4.019357
v -0.221719 4.455138 -4.404632
v -0.221719 4.089904 -4.615499
v -0.221719 3.670478 -4.571416
v -0.221719 3.357068 -4.289219
v -0.421735 3.370739 -3.887353
v -0.421735 3.516656 -3.559619
v -0.421735 3.827342 -3.380244
v -0.421735 4.184126 -3.417744
v -0.421735 4.450728 -3.657793
v -0.421735 4.525318 -4.008704
v -0.421735 4.379400 -4.336438
v -0.421735 4.068715 -4.515811
v -0.421735 3.711930 -4.478312
v -0.421735 3.445327 -4.238264
v -0.580469 3.528603 -3.903945
v -0.580469 3.634618 -3.665832
v -0.580469 3.860344 -3.535509
v -0.580469 4.119563 -3.562753
v -0.580469 4.313261 -3.737160
v -0.580469 4.367454 -3.992111
v -0.580469 4.261438 -4.230224
v -0.580469 4.035711 -4.360547
v -0.580469 3.776492 -4.333302
v -0.580469 3.582795 -4.158896
v -0.682382 3.727524 -3.924852
v -0.682382 3.783259 -3.799669
v -0.682382 3.901931 -3.731154
v -0.682382 4.038210 -3.745478
v -0.682382 4.140042 -3.837168
v -0.682382 4.168533 -3.971205
v -0.682382 4.112798 -4.096389
v -0.682382 3.994126 -4.164903
v -0.682382 3.857847 -4.150579
v -0.682382 3.756012 -4.058887
v 0.717499 3.948028 -3.948028
v -0.717499 3.948028 -3.948028
vt 0.428721 0.731097
vt 0.423384 0.711232
vt 0.448811 0.691129
vt 0.454854 0.721308
vt 0.414714 0.693478
vt 0.439039 0.661786
vt 0.401504 0.680363
vt 0.423123 0.634598
vt 0.382619 0.676927
vt 0.395893 0.612823
vt 0.395727 0.830588
vt 0.412604 0.825134
vt 0.436200 0.867558
vt 0.410137 0.886948
vt 0.423599 0.811003
vt 0.450104 0.841060
vt 0.429593 0.792696
vt 0.456742 0.812038
vt 0.431913 0.772560
vt 0.458956 0.782066
vt 0.431498 0.751788
vt 0.458165 0.751726
vt 0.475921 0.678885
vt 0.481269 0.715280
vt 0.467852 0.641976
vt 0.455053 0.604112
vt 0.431941 0.564023
vt 0.468112 0.896468
vt 0.442155 0.932094
vt 0.480104 0.859898
vt 0.485021 0.823526
vt 0.486044 0.787410
vt 0.484619 0.751392
vt 0.504356 0.671602
vt 0.508380 0.711424
vt 0.499281 0.630435
vt 0.492483 0.586301
vt 0.481461 0.534542
vt 0.505307 0.913576
vt 0.487673 0.962105
vt 0.512265 0.870330
vt 0.514216 0.829509
vt 0.513595 0.789856
vt 0.511499 0.750667
vt 0.533663 0.668613
vt 0.536024 0.709478
vt 0.532135 0.626190
vt 0.532427 0.580316
vt 0.536523 0.525802
vt 0.545151 0.919152
vt 0.541154 0.973684
vt 0.545370 0.873261
vt 0.543784 0.830824
vt 0.541391 0.789948
vt 0.538702 0.749711
vt 0.563241 0.669941
vt 0.563826 0.709578
vt 0.565249 0.629142
vt 0.572281 0.585927
vt 0.590007 0.537443
vt 0.585072 0.913140
vt 0.596184 0.964890
vt 0.578208 0.869000
vt 0.573081 0.827829
vt 0.569030 0.788001
vt 0.565906 0.748758
vt 0.592442 0.675943
vt 0.591383 0.712038
vt 0.597412 0.639599
vt 0.609470 0.603072
vt 0.635498 0.567511
vt 0.622467 0.895314
vt 0.645645 0.935374
vt 0.609618 0.857454
vt 0.601505 0.820545
vt 0.596138 0.784149
vt 0.592789 0.748043
vt 0.620723 0.687454
vt 0.618477 0.717402
vt 0.627404 0.658464
vt 0.641357 0.632014
vt 0.667460 0.612695
vt 0.654356 0.864832
vt 0.681619 0.886574
vt 0.638412 0.837652
vt 0.628602 0.808308
vt 0.622553 0.778133
vt 0.619250 0.747726
vt 0.647865 0.706821
vt 0.645523 0.726937
vt 0.653885 0.688543
vt 0.664905 0.674454
vt 0.681789 0.669058
vt 0.675934 0.819095
vt 0.694827 0.822519
vt 0.662700 0.805996
vt 0.654033 0.788239
vt 0.648697 0.768379
vt 0.645926 0.747696
vt 0.399832 0.754817
vt 0.677600 0.744731
vn 0.881469 -0.431414 0.192077
vn 0.881469 -0.431414 0.192077
vn 0.881469 -0.431414 0.192077
vn 0.881469 -0.431414 0.192077
vn 0.916326 -0.297579 0.267942
vn 0.916326 -0.083255 0.391682
vn 0.773548 -0.131761 0.619889
vn 0.773548 -0.470959 0.424054
vn 0.916326 -0.083255 0.391682
vn 0.916326 0.162870 0.365813
vn 0.773548 0.257765 0.578949
vn 0.773548 -0.131761 0.619889
vn 0.916326 0.162870 0.365813
vn 0.916326 0.346785 0.200216
vn 0.773548 0.548833 0.316869
vn 0.773548 0.257765 0.578949
vn 0.916326 0.346785 0.200216
vn 0.916326 0.398238 -0.041857
vn 0.773548 0.630266 -0.066244
vn 0.773548 0.548833 0.316869
vn 0.916326 0.398238 -0.041857
vn 0.916326 0.297579 -0.267942
vn 0.773548 0.470959 -0.424054
vn 0.773548 0.630266 -0.066244
vn 0.916326 0.297579 -0.267942
vn 0.916326 0.083255 -0.391682
vn 0.773548 0.131761 -0.619889
vn 0.773548 0.470959 -0.424054
vn 0.916326 0.083255 -0.391682
vn 0.916326 -0.162871 -0.365813
vn 0.773548 -0.257765 -0.578949
vn 0.773548 0.131761 -0.619889
vn 0.916326 -0.162871 -0.365813
vn 0.916326 -0.346785 -0.200216
vn 0.773548 -0.548833 -0.316869
vn 0.773548 -0.257765 -0.578949
vn 0.916326 -0.346785 -0.200216
vn 0.916326 -0.398239 0.041856
vn 0.773548 -0.630266 0.066244
vn 0.773548 -0.548833 -0.316869
vn 0.773548 -0.630266 0.066244
vn 0.773548 -0.470959 0.424054
vn 0.557962 -0.616711 0.555289
vn 0.557962 -0.825320 0.086745
vn 0.773548 -0.470959 0.424054
vn 0.773548 -0.131761 0.619889
vn 0.557962 -0.172539 0.811732
vn 0.557962 -0.616711 0.555289
vn 0.773548 -0.131761 0.619889
vn 0.773548 0.257765 0.578949
vn 0.557962 0.337537 0.758121
vn 0.557962 -0.172539 0.811732
vn 0.773548 0.257765 0.578949
vn 0.773548 0.548833 0.316869
vn 0.557962 0.718685 0.414933
vn 0.557962 0.337537 0.758121
vn 0.773548 0.548833 0.316869
vn 0.773548 0.630266 -0.066244
vn 0.557962 0.825320 -0.086745
vn 0.557962 0.718685 0.414933
vn 0.773548 0.630266 -0.066244
vn 0.773548 0.470959 -0.424054
vn 0.557962 0.616711 -0.555289
vn 0.557962 0.825320 -0.086745
vn 0.773548 0.470959 -0.424054
vn 0.773548 0.131761 -0.619889
vn 0.557962 0.172539 -0.811732
vn 0.557962 0.616711 -0.555289
vn 0.773548 0.131761 -0.619889
vn 0.773548 -0.257765 -0.578949
vn 0.557962 -0.337537 -0.758121
vn 0.557962 0.172539 -0.811732
vn 0.773548 -0.257765 -0.578949
vn 0.773548 -0.548833 -0.316869
vn 0.557962 -0.718685 -0.414933
vn 0.557962 -0.337537 -0.758121
vn 0.773548 -0.548833 -0.316869
vn 0.773548 -0.630266 0.066244
vn 0.557962 -0.825320 0.086745
vn 0.557962 -0.718685 -0.414933
vn 0.557962 -0.825320 0.086745
vn 0.557962 -0.616711 0.555289
vn 0.291930 -0.710773 0.639983
vn 0.291930 -0.951200 0.099975
vn 0.557962 -0.616711 0.555289
vn 0.557962 -0.172539 0.811732
vn 0.291930 -0.198855 0.935539
vn 0.291930 -0.710773 0.639983
vn 0.557962 -0.172539 0.811732
vn 0.557962 0.337537 0.758121
vn 0.291930 0.389019 0.873751
vn 0.291930 -0.198855 0.935539
vn 0.557962 0.337537 0.758121
vn 0.557962 0.718685 0.414933
vn 0.291930 0.828301 0.478220
vn 0.291930 0.389019 0.873751
vn 0.557962 0.718685 0.414933
vn 0.557962 0.825320 -0.086745
vn 0.291930 0.951200 -0.099975
vn 0.291930 0.828301 0.478220
vn 0.557962 0.825320 -0.086745
vn 0.557962 0.616711 -0.555289
vn 0.291930 0.710773 -0.639983
vn 0.291930 0.951200 -0.099975
vn 0.557962 0.616711 -0.555289
vn 0.557962 0.172539 -0.811732
vn 0.291930 0.198855 -0.935539
vn 0.291930 0.710773 -0.639983
vn 0.557962 0.172539 -0.811732
vn 0.557962 -0.337537 -0.758121
vn 0.291930 -0.389019 -0.873751
vn 0.291930 0.198855 -0.935539
vn 0.557962 -0.337537 -0.758121
vn 0.557962 -0.718685 -0.414933
vn 0.291930 -0.828301 -0.478220
vn 0.291930 -0.389019 -0.873751
vn 0.557962 -0.718685 -0.414933
vn 0.557962 -0.825320 0.086745
vn 0.291930 -0.951200 0.099975
vn 0.291930 -0.828301 -0.478220
vn 0.291930 -0.951200 0.099975
vn 0.291930 -0.710773 0.639983
vn 0.000000 -0.743145 0.669131
vn 0.000000 -0.994522 0.104528
vn 0.291930 -0.710773 0.639983
vn 0.291930 -0.198855 0.935539
vn 0.000000 -0.207912 0.978148
vn 0.000000 -0.743145 0.669131
vn 0.291930 -0.198855 0.935539
vn 0.291930 0.389019 0.873751
vn -0.000000 0.406737 0.913545
vn 0.000000 -0.207912 0.978148
vn 0.291930 0.389019 0.873751
vn 0.291930 0.828301 0.478220
vn -0.000000 0.866025 0.500000
vn -0.000000 0.406737 0.913545
vn 0.291930 0.828301 0.478220
vn 0.291930 0.951200 -0.099975
vn -0.000000 0.994522 -0.104528
vn -0.000000 0.866025 0.500000
vn 0.291930 0.951200 -0.099975
vn 0.291930 0.710773 -0.639983
vn -0.000000 0.743145 -0.669131
vn -0.000000 0.994522 -0.104528
vn 0.291930 0.710773 -0.639983
vn 0.291930 0.198855 -0.935539
vn -0.000000 0.207912 -0.978148
vn -0.000000 0.743145 -0.669131
vn 0.291930 0.198855 -0.935539
vn 0.291930 -0.389019 -0.873751
vn 0.000000 -0.406737 -0.913545
vn -0.000000 0.207912 -0.978148
vn 0.291930 -0.389019 -0.873751
vn 0.291930 -0.828301 -0.478220
vn 0.000000 -0.866025 -0.500000
vn 0.000000 -0.406737 -0.913545
vn 0.291930 -0.828301 -0.478220
vn 0.291930 -0.951200 0.099975
vn 0.000000 -0.994522 0.104528
vn 0.000000 -0.866025 -0.500000
vn 0.000000 -0.994522 0.104528
vn 0.000000 -0.743145 0.669131
vn -0.291930 -0.710773 0.639983
vn -0.291930 -0.951200 0.099975
vn 0.000000 -0.743145 0.669131
vn 0.000000 -0.207912 0.978148
vn -0.291930 -0.198855 0.935539
vn -0.291930 -0.710773 0.639983
vn 0.000000 -0.207912 0.978148
vn -0.000000 0.406737 0.913545
vn -0.291930 0.389019 0.873751
vn -0.291930 -0.198855 0.935539
vn -0.000000 0.406737 0.913545
vn -0.000000 0.866025 0.500000
vn -0.291930 0.828301 0.478220
vn -0.291930 0.389019 0.873751
vn -0.000000 0.866025 0.500000
vn -0.000000 0.994522 -0.104528
vn -0.291930 0.951200 -0.099975
vn -0.291930 0.828301 0.478220
vn -0.000000 0.994522 -0.104528
vn -0.000000 0.743145 -0.669131
vn -0.291930 0.710773 -0.639983
vn -0.291930 0.951200 -0.099975
vn -0.000000 0.743145 -0.669131
vn -0.000000 0.207912 -0.978148
vn -0.291930 0.198855 -0.935539
vn -0.291930 0.710773 -0.639983
vn -0.000000 0.207912 -0.978148
vn 0.000000 -0.406737 -0.913545
vn -0.291930 -0.389019 -0.873751
vn -0.291930 0.198855 -0.935539
vn 0.000000 -0.406737 -0.913545
vn 0.000000 -0.866025 -0.500000
vn -0.291930 -0.828301 -0.478220
vn -0.291930 -0.389019 -0.873751
vn 0.000000 -0.866025 -0.500000
vn 0.000000 -0.994522 0.104528
vn -0.291930 -0.951200 0.099975
vn -0.291930 -0.828301 -0.478220
vn -0.291930 -0.951200 0.099975
vn -0.291930 -0.710773 0.639983
vn -0.557962 -0.616711 0.555289
vn -0.557962 -0.825320 0.086745
vn -0.291930 -0.710773 0.639983
vn -0.291930 -0.198855 0.935539
vn -0.557962 -0.172539 0.811732
vn -0.557962 -0.616711 0.555289
vn -0.291930 -0.198855 0.935539
vn -0.291930 0.389019 0.873751
vn -0.557962 0.337537 0.758121
vn -0.557962 -0.172539 0.811732
vn -0.291930 0.389019 0.873751
vn -0.291930 0.828301 0.478220
vn -0.557962 0.718685 0.414933
vn -0.557962 0.337537 0.758121
vn -0.291930 0.828301 0.478220
vn -0.291930 0.951200 -0.099975
vn -0.557962 0.825320 -0.086745
vn -0.557962 0.718685 0.414933
vn -0.291930 0.951200 -0.099975
vn -0.291930 0.710773 -0.639983
vn -0.557962 0.616711 -0.555289
vn -0.557962 0.825320 -0.086745
vn -0.291930 0.710773 -0.639983
vn -0.291930 0.198855 -0.935539
vn -0.557962 0.172539 -0.811732
vn -0.557962 0.616711 -0.555289
vn -0.291930 0.198855 -0.935539
vn -0.291930 -0.389019 -0.873751
vn -0.557962 -0.337537 -0.758121
vn -0.557962 0.172539 -0.811732
vn -0.291930 -0.389019 -0.873751
vn -0.291930 -0.828301 -0.478220
vn -0.557962 -0.718685 -0.414933
vn -0.557962 -0.337537 -0.758121
vn -0.291930 -0.828301 -0.478220
vn -0.291930 -0.951200 0.099975
vn -0.557962 -0.825320 0.086745
vn -0.557962 -0.718685 -0.414933
vn -0.557962 -0.825320 0.086745
vn -0.557962 -0.616711 0.555289
vn -0.773548 -0.470959 0.424054
vn -0.773548 -0.630266 0.066244
vn -0.557962 -0.616711 0.555289
vn -0.557962 -0.172539 0.811732
vn -0.773548 -0.131761 0.619889
vn -0.773548 -0.470959 0.424054
vn -0.557962 -0.172539 0.811732
vn -0.557962 0.337537 0.758121
vn -0.773548 0.257765 0.578949
vn -0.773548 -0.131761 0.619889
vn -0.557962 0.337537 0.758121
vn -0.557962 0.718685 0.414933
vn -0.773548 0.548833 0.316869
vn -0.773548 0.257765 0.578949
vn -0.557962 0.718685 0.414933
vn -0.557962 0.825320 -0.086745
vn -0.773548 0.630266 -0.066244
vn -0.773548 0.548833 0.316869
vn -0.557962 0.825320 -0.086745
vn -0.557962 0.616711 -0.555289
vn -0.773548 0.470959 -0.424054
vn -0.773548 0.630266 -0.066244
vn -0.557962 0.616711 -0.555289
vn -0.557962 0.172539 -0.811732
vn -0.773548 0.131761 -0.619889
vn -0.773548 0.470959 -0.424054
vn -0.557962 0.172539 -0.811732
vn -0.557962 -0.337537 -0.758121
vn -0.773548 -0.257765 -0.578949
vn -0.773548 0.131761 -0.619889
vn -0.557962 -0.337537 -0.758121
vn -0.557962 -0.718685 -0.414933
vn -0.773548 -0.548833 -0.316869
vn -0.773548 -0.257765 -0.578949
vn -0.557962 -0.718685 -0.414933
vn -0.557962 -0.825320 0.086745
vn -0.773548 -0.630266 0.066244
vn -0.773548 -0.548833 -0.316869
vn -0.773548 -0.630266 0.066244
vn -0.773548 -0.470959 0.424054
vn -0.916326 -0.297579 0.267942
vn -0.916326 -0.398239 0.041856
vn -0.773548 -0.470959 0.424054
vn -0.773548 -0.131761 0.619889
vn -0.916326 -0.083255 0.391682
vn -0.916326 -0.297579 0.267942
vn -0.773548 -0.131761 0.619889
vn -0.773548 0.257765 0.578949
vn -0.916326 0.162870 0.365813
vn -0.916326 -0.083255 0.391682
vn -0.773548 0.257765 0.578949
vn -0.773548 0.548833 0.316869
vn -0.916326 0.346785 0.200216
vn -0.916326 0.162870 0.365813
vn -0.773548 0.548833 0.316869
vn -0.773548 0.630266 -0.066244
vn -0.916326 0.398239 -0.041856
vn -0.916326 0.346785 0.200216
vn -0.773548 0.630266 -0.066244
vn -0.773548 0.470959 -0.424054
vn -0.916326 0.297579 -0.267942
vn -0.916326 0.398239 -0.041856
vn -0.773548 0.470959 -0.424054
vn -0.773548 0.131761 -0.619889
vn -0.916326 0.083255 -0.391682
vn -0.916326 0.297579 -0.267942
vn -0.773548 0.131761 -0.619889
vn -0.773548 -0.257765 -0.578949
vn -0.916326 -0.162871 -0.365813
vn -0.916326 0.083255 -0.391682
vn -0.773548 -0.257765 -0.578949
vn -0.773548 -0.548833 -0.316869
vn -0.916326 -0.346785 -0.200216
vn -0.916326 -0.162871 -0.365813
vn -0.773548 -0.548833 -0.316869
vn -0.773548 -0.630266 0.066244
vn -0.916326 -0.398239 0.041856
vn -0.916326 -0.346785 -0.200216
vn 0.916326 -0.297579 0.267942
vn 0.916326 -0.398239 0.041856
vn 1.000000 0.000000 0.000000
vn 0.916326 -0.083255 0.391682
vn 0.916326 -0.297579 0.267942
vn 1.000000 0.000000 0.000000
vn 0.916326 0.162870 0.365813
vn 0.916326 -0.083255 0.391682
vn 1.000000 0.000000 0.000000
vn 0.916326 0.346785 0.200216
vn 0.916326 0.162870 0.365813
vn 1.000000 0.000000 0.000000
vn 0.916326 0.398238 -0.041857
vn 0.916326 0.346785 0.200216
vn 1.000000 0.000000 0.000000
vn 0.916326 0.297579 -0.267942
vn 0.916326 0.398238 -0.041857
vn 1.000000 0.000000 0.000000
vn 0.916326 0.083255 -0.391682
vn 0.916326 0.297579 -0.267942
vn 1.000000 0.000000 0.000000
vn 0.916326 -0.162871 -0.365813
vn 0.916326 0.083255 -0.391682
vn 1.000000 0.000000 0.000000
vn 0.916326 -0.346785 -0.200216
vn 0.916326 -0.162871 -0.365813
vn 1.000000 0.000000 0.000000
vn 0.916326 -0.398239 0.041856
vn 0.916326 -0.346785 -0.200216
vn 1.000000 0.000000 0.000000
vn -0.916326 -0.398239 0.041856
vn -0.916326 -0.297579 0.267942
vn -1.000000 -0.000000 0.000000
vn -0.916326 -0.297579 0.267942
vn -0.916326 -0.083255 0.391682
vn -1.000000 -0.000000 0.000000
vn -0.916326 -0.083255 0.391682
vn -0.916326 0.162870 0.365813
vn -1.000000 -0.000000 0.000000
vn -0.916326 0.162870 0.365813
vn -0.916326 0.346785 0.200216
vn -1.000000 -0.000000 0.000000
vn -0.916326 0.346785 0.200216
vn -0.916326 0.398239 -0.041856
vn -1.000000 -0.000000 0.000000
vn -0.916326 0.398239 -0.041856
vn -0.916326 0.297579 -0.267942
vn -1.000000 -0.000000 0.000000
vn -0.916326 0.297579 -0.267942
vn -0.916326 0.083255 -0.391682
vn -1.000000 -0.000000 0.000000
vn -0.916326 0.083255 -0.391682
vn -0.916326 -0.162871 -0.365813
vn -1.000000 -0.000000 0.000000
vn -0.916326 -0.162871 -0.365813
vn -0.916326 -0.346785 -0.200216
vn -1.000000 -0.000000 0.000000
vn -0.916326 -0.346785 -0.200216
vn -0.916326 -0.398239 0.041856
vn -1.000000 -0.000000 0.000000
s off
g polySurface64 polySurface4
usemtl initialShadingGroup
f 1/1/1 2/2/2 12/3/3 11/4/4
f 2/2/5 3/5/6 13/6/7 12/3/8
f 3/5/9 4/7/10 14/8/11 13/6/12
f 4/7/13 5/9/14 15/10/15 14/8/16
f 5/11/17 6/12/18 16/13/19 15/14/20
f 6/12/21 7/15/22 17/16/23 16/13/24
f 7/15/25 8/17/26 18/18/27 17/16/28
f 8/17/29 9/19/30 19/20/31 18/18/32
f 9/19/33 10/21/34 20/22/35 19/20/36
f 10/21/37 1/1/38 11/4/39 20/22/40
f 11/4/41 12/3/42 22/23/43 21/24/44
f 12/3/45 13/6/46 23/25/47 22/23/48
f 13/6/49 14/8/50 24/26/51 23/25/52
f 14/8/53 15/10/54 25/27/55 24/26/56
f 15/14/57 16/13/58 26/28/59 25/29/60
f 16/13/61 17/16/62 27/30/63 26/28/64
f 17/16/65 18/18/66 28/31/67 27/30/68
f 18/18/69 19/20/70 29/32/71 28/31/72
f 19/20/73 20/22/74 30/33/75 29/32/76
f 20/22/77 11/4/78 21/24/79 30/33/80
f 21/24/81 22/23/82 32/34/83 31/35/84
f 22/23/85 23/25/86 33/36/87 32/34/88
f 23/25/89 24/26/90 34/37/91 33/36/92
f 24/26/93 25/27/94 35/38/95 34/37/96
f 25/29/97 26/28/98 36/39/99 35/40/100
f 26/28/101 27/30/102 37/41/103 36/39/104
f 27/30/105 28/31/106 38/42/107 37/41/108
f 28/31/109 29/32/110 39/43/111 38/42/112
f 29/32/113 30/33/114 40/44/115 39/43/116
f 30/33/117 21/24/118 31/35/119 40/44/120
f 31/35/121 32/34/122 42/45/123 41/46/124
f 32/34/125 33/36/126 43/47/127 42/45/128
f 33/36/129 34/37/130 44/48/131 43/47/132
f 34/37/133 35/38/134 45/49/135 44/48/136
f 35/40/137 36/39/138 46/50/139 45/51/140
f 36/39/141 37/41/142 47/52/143 46/50/144
f 37/41/145 38/42/146 48/53/147 47/52/148
f 38/42/149 39/43/150 49/54/151 48/53/152
f 39/43/153 40/44/154 50/55/155 49/54/156
f 40/44/157 31/35/158 41/46/159 50/55/160
f 41/46/161 42/45/162 52/56/163 51/57/164
f 42/45/165 43/47/166 53/58/167 52/56/168
f 43/47/169 44/48/170 54/59/171 53/58/172
f 44/48/173 45/49/174 55/60/175 54/59/176
f 45/51/177 46/50/178 56/61/179 55/62/180
f 46/50/181 47/52/182 57/63/183 56/61/184
f 47/52/185 48/53/186 58/64/187 57/63/188
f 48/53/189 49/54/190 59/65/191 58/64/192
f 49/54/193 50/55/194 60/66/195 59/65/196
f 50/55/197 41/46/198 51/57/199 60/66/200
f 51/57/201 52/56/202 62/67/203 61/68/204
f 52/56/205 53/58/206 63/69/207 62/67/208
f 53/58/209 54/59/210 64/70/211 63/69/212
f 54/59/213 55/60/214 65/71/215 64/70/216
f 55/62/217 56/61/218 66/72/219 65/73/220
f 56/61/221 57/63/222 67/74/223 66/72/224
f 57/63/225 58/64/226 68/75/227 67/74/228
f 58/64/229 59/65/230 69/76/231 68/75/232
f 59/65/233 60/66/234 70/77/235 69/76/236
f 60/66/237 51/57/238 61/68/239 70/77/240
f 61/68/241 62/67/242 72/78/243 71/79/244
f 62/67/245 63/69/246 73/80/247 72/78/248
f 63/69/249 64/70/250 74/81/251 73/80/252
f 64/70/253 65/71/254 75/82/255 74/81/256
f 65/73/257 66/72/258 76/83/259 75/84/260
f 66/72/261 67/74/262 77/85/263 76/83/264
f 67/74/265 68/75/266 78/86/267 77/85/268
f 68/75/269 69/76/270 79/87/271 78/86/272
f 69/76/273 70/77/274 80/88/275 79/87/276
f 70/77/277 61/68/278 71/79/279 80/88/280
f 71/79/281 72/78/282 82/89/283 81/90/284
f 72/78/285 73/80/286 83/91/287 82/89/288
f 73/80/289 74/81/290 84/92/291 83/91/292
f 74/81/293 75/82/294 85/93/295 84/92/296
f 75/84/297 76/83/298 86/94/299 85/95/300
f 76/83/301 77/85/302 87/96/303 86/94/304
f 77/85/305 78/86/306 88/97/307 87/96/308
f 78/86/309 79/87/310 89/98/311 88/97/312
f 79/87/313 80/88/314 90/99/315 89/98/316
f 80/88/317 71/79/318 81/90/319 90/99/320
f 2/2/321 1/1/322 91/100/323
f 3/5/324 2/2/325 91/100/326
f 4/7/327 3/5/328 91/100/329
f 5/9/330 4/7/331 91/100/332
f 6/12/333 5/11/334 91/100/335
f 7/15/336 6/12/337 91/100/338
f 8/17/339 7/15/340 91/100/341
f 9/19/342 8/17/343 91/100/344
f 10/21/345 9/19/346 91/100/347
f 1/1/348 10/21/349 91/100/350
f 81/90/351 82/89/352 92/101/353
f 82/89/354 83/91/355 92/101/356
f 83/91/357 84/92/358 92/101/359
f 84/92/360 85/93/361 92/101/362
f 85/95/363 86/94/364 92/101/365
f 86/94/366 87/96/367 92/101/368
f 87/96/369 88/97/370 92/101/371
f 88/97/372 89/98/373 92/101/374
f 89/98/375 90/99/376 92/101/377
f 90/99/378 81/90/379 92/101/380
